# xmcd
#
# Track frame offsets:
#	150
#	15776
#	30771
#	43076
#	54472
#	70500
#	81653
#	94087
#	107795
#	123464
#	141629
#
# Disc length: 2044 seconds
#
# Revision: 0
# Processed by: cddbd v1.5.2PL0 Copyright (c) Steve Scherf et al.
# Submitted via: audiograbber 1.83.01
#
DISCID=8c07fa0b
DTITLE=Alan Jackson - When Somebody Loves You
DYEAR=1900
DGENRE=Country
TTITLE0=A Love Like That
TTITLE1=I Still Love You
TTITLE2=It's Alright To Be A Redneck
TTITLE3=Life Or Love
TTITLE4=Maybe I Should Stay Here
TTITLE5=Meat And Potato Man
TTITLE6=The Thrill Is Back
TTITLE7=Three Minute Positive Not To..
TTITLE8=When Somebody Loves You
TTITLE9=Where I Come From
TTITLE10=WWW.Memory
EXTD=
EXTT0=
EXTT1=
EXTT2=
EXTT3=
EXTT4=
EXTT5=
EXTT6=
EXTT7=
EXTT8=
EXTT9=
EXTT10=
PLAYORDER=
